<?xml version="1.0" encoding="UTF-8"?>
<svg width="53px" height="53px" viewBox="0 0 53 53" version="1.1" xmlns="http://www.w3.org/2000/svg" xmlns:xlink="http://www.w3.org/1999/xlink">
    <!-- Generator: Sketch 61.2 (89653) - https://sketch.com -->
    <title>Group 4 Copy</title>
    <desc>Created with Sketch.</desc>
    <defs>
        <linearGradient x1="6.19646256%" y1="72.9516973%" x2="96.6410216%" y2="31.2123255%" id="linearGradient-1">
            <stop stop-color="#B631D9" offset="0%"></stop>
            <stop stop-color="#490161" offset="100%"></stop>
        </linearGradient>
        <linearGradient x1="118.657769%" y1="56.1550564%" x2="-18.359375%" y2="56.1550564%" id="linearGradient-2">
            <stop stop-color="#B631D9" offset="0%"></stop>
            <stop stop-color="#490161" offset="100%"></stop>
        </linearGradient>
    </defs>
    <g id="v5" stroke="none" stroke-width="1" fill="none" fill-rule="evenodd">
        <g id="OBFAQ-3" transform="translate(-39.000000, -31.000000)">
            <g id="Group-4-Copy" transform="translate(39.000000, 31.000000)">
                <path d="M26.24,0.494035088 C40.7319518,0.494035088 52.48,12.2420833 52.48,26.7340351 C52.48,41.2259869 40.7319518,52.9740351 26.24,52.9740351 C11.7480482,52.9740351 0,41.2259869 0,26.7340351 C0,12.2420833 11.7480482,0.494035088 26.24,0.494035088 Z M26.24,13.5474361 C18.9572425,13.5474361 13.053401,19.4512776 13.053401,26.7340351 C13.053401,34.0167926 18.9572425,39.9206341 26.24,39.9206341 C33.5227575,39.9206341 39.426599,34.0167926 39.426599,26.7340351 C39.426599,19.4512776 33.5227575,13.5474361 26.24,13.5474361 Z" id="Combined-Shape" fill="url(#linearGradient-1)"></path>
                <path d="M26.88,8.17403509 C37.4838672,8.17403509 46.08,16.7701679 46.08,27.3740351 C46.08,37.9779023 37.4838672,46.5740351 26.88,46.5740351 C16.2761328,46.5740351 7.68,37.9779023 7.68,27.3740351 C7.68,16.7701679 16.2761328,8.17403509 26.88,8.17403509 Z M26.88,14.1740351 C19.5898413,14.1740351 13.68,20.0838764 13.68,27.3740351 C13.68,34.6641938 19.5898413,40.5740351 26.88,40.5740351 C34.1701587,40.5740351 40.08,34.6641938 40.08,27.3740351 C40.08,20.0838764 34.1701587,14.1740351 26.88,14.1740351 Z" id="Combined-Shape" fill="url(#linearGradient-2)"></path>
            </g>
        </g>
    </g>
</svg>